REM MD5 fdd515166ab1fe60a0200b52b0eb7ca5
FILE "PlayStation Underground Volume 2 Issue 4 (USA) (Disc 2).bin" BINARY
  TRACK 01 MODE2/2352
    INDEX 01 00:00:00
  TRACK 02 AUDIO
    INDEX 00 54:46:29
    INDEX 01 54:48:29
  TRACK 03 AUDIO
    INDEX 00 59:06:45
    INDEX 01 59:08:45
  TRACK 04 AUDIO
    INDEX 00 60:07:10
    INDEX 01 60:09:10
REM LEADOUT 60:15:06
